<?xml version="1.0" encoding="UTF-8" standalone="no"?>
<!DOCTYPE svg PUBLIC "-//W3C//DTD SVG 1.1//EN"
 "http://www.w3.org/Graphics/SVG/1.1/DTD/svg11.dtd">
<!-- Generated by graphviz version 14.1.2 (0)
 -->
<!-- Title: API Pages: 1 -->
<svg width="779pt" height="552pt"
 viewBox="0.00 0.00 779.00 552.00" xmlns="http://www.w3.org/2000/svg" xmlns:xlink="http://www.w3.org/1999/xlink">
<g id="graph0" class="graph" transform="scale(1 1) rotate(0) translate(4 548)">
<title>API</title>
<polygon fill="white" stroke="none" points="-4,4 -4,-548 775,-548 775,4 -4,4"/>
<!-- root -->
<g id="node1" class="node">
<title>root</title>
<path fill="none" stroke="black" d="M42,-298C42,-298 12,-298 12,-298 6,-298 0,-292 0,-286 0,-286 0,-274 0,-274 0,-268 6,-262 12,-262 12,-262 42,-262 42,-262 48,-262 54,-268 54,-274 54,-274 54,-286 54,-286 54,-292 48,-298 42,-298"/>
<text xml:space="preserve" text-anchor="middle" x="27" y="-275.32" font-family="Times,serif" font-size="14.00">root</text>
</g>
<!-- api -->
<g id="node2" class="node">
<title>api</title>
<path fill="none" stroke="black" d="M132,-298C132,-298 102,-298 102,-298 96,-298 90,-292 90,-286 90,-286 90,-274 90,-274 90,-268 96,-262 102,-262 102,-262 132,-262 132,-262 138,-262 144,-268 144,-274 144,-274 144,-286 144,-286 144,-292 138,-298 132,-298"/>
<text xml:space="preserve" text-anchor="middle" x="117" y="-275.32" font-family="Times,serif" font-size="14.00">api</text>
</g>
<!-- root&#45;&gt;api -->
<g id="edge1" class="edge">
<title>root&#45;&gt;api</title>
<path fill="none" stroke="black" d="M54.4,-280C61.89,-280 70.18,-280 78.2,-280"/>
<polygon fill="black" stroke="black" points="78.1,-283.5 88.1,-280 78.1,-276.5 78.1,-283.5"/>
</g>
<!-- v1 -->
<g id="node3" class="node">
<title>v1</title>
<path fill="none" stroke="black" d="M237.5,-544C237.5,-544 207.5,-544 207.5,-544 201.5,-544 195.5,-538 195.5,-532 195.5,-532 195.5,-520 195.5,-520 195.5,-514 201.5,-508 207.5,-508 207.5,-508 237.5,-508 237.5,-508 243.5,-508 249.5,-514 249.5,-520 249.5,-520 249.5,-532 249.5,-532 249.5,-538 243.5,-544 237.5,-544"/>
<text xml:space="preserve" text-anchor="middle" x="222.5" y="-521.33" font-family="Times,serif" font-size="14.00">v1</text>
</g>
<!-- api&#45;&gt;v1 -->
<g id="edge2" class="edge">
<title>api&#45;&gt;v1</title>
<path fill="none" stroke="black" d="M118.92,-298.32C121.77,-338.47 133.36,-435.69 180,-499 181.91,-501.6 184.15,-504.01 186.59,-506.24"/>
<polygon fill="black" stroke="black" points="184.18,-508.8 194.21,-512.18 188.48,-503.27 184.18,-508.8"/>
</g>
<!-- graphql -->
<g id="node5" class="node">
<title>graphql</title>
<path fill="none" stroke="black" d="M246.25,-490C246.25,-490 198.75,-490 198.75,-490 192.75,-490 186.75,-484 186.75,-478 186.75,-478 186.75,-466 186.75,-466 186.75,-460 192.75,-454 198.75,-454 198.75,-454 246.25,-454 246.25,-454 252.25,-454 258.25,-460 258.25,-466 258.25,-466 258.25,-478 258.25,-478 258.25,-484 252.25,-490 246.25,-490"/>
<text xml:space="preserve" text-anchor="middle" x="222.5" y="-467.32" font-family="Times,serif" font-size="14.00">graphql</text>
</g>
<!-- api&#45;&gt;graphql -->
<g id="edge4" class="edge">
<title>api&#45;&gt;graphql</title>
<path fill="none" stroke="black" d="M121.03,-298.47C127.16,-331.1 143.68,-399.79 180,-445 180.15,-445.19 180.31,-445.38 180.47,-445.58"/>
<polygon fill="black" stroke="black" points="177.88,-447.94 187.46,-452.46 182.79,-442.95 177.88,-447.94"/>
</g>
<!-- health -->
<g id="node6" class="node">
<title>health</title>
<path fill="none" stroke="black" d="M241,-436C241,-436 204,-436 204,-436 198,-436 192,-430 192,-424 192,-424 192,-412 192,-412 192,-406 198,-400 204,-400 204,-400 241,-400 241,-400 247,-400 253,-406 253,-412 253,-412 253,-424 253,-424 253,-430 247,-436 241,-436"/>
<text xml:space="preserve" text-anchor="middle" x="222.5" y="-413.32" font-family="Times,serif" font-size="14.00">health</text>
</g>
<!-- api&#45;&gt;health -->
<g id="edge5" class="edge">
<title>api&#45;&gt;health</title>
<path fill="none" stroke="black" d="M126,-298.25C136.34,-320.53 155.92,-358.63 180,-386 181.89,-388.15 183.95,-390.26 186.1,-392.3"/>
<polygon fill="black" stroke="black" points="183.73,-394.87 193.57,-398.8 188.32,-389.59 183.73,-394.87"/>
</g>
<!-- issues -->
<g id="node7" class="node">
<title>issues</title>
<path fill="none" stroke="black" d="M759,-367C759,-367 722.75,-367 722.75,-367 716.75,-367 710.75,-361 710.75,-355 710.75,-355 710.75,-343 710.75,-343 710.75,-337 716.75,-331 722.75,-331 722.75,-331 759,-331 759,-331 765,-331 771,-337 771,-343 771,-343 771,-355 771,-355 771,-361 765,-367 759,-367"/>
<text xml:space="preserve" text-anchor="middle" x="740.88" y="-344.32" font-family="Times,serif" font-size="14.00">issues</text>
</g>
<!-- api&#45;&gt;issues -->
<g id="edge6" class="edge">
<title>api&#45;&gt;issues</title>
<path fill="none" stroke="black" d="M128.14,-298.41C138.69,-315.63 156.88,-340.51 180,-353 240.19,-385.51 264.34,-372 332.75,-372 332.75,-372 332.75,-372 534.38,-372 591.84,-372 657.79,-363.01 699.14,-356.27"/>
<polygon fill="black" stroke="black" points="699.6,-359.74 708.89,-354.64 698.45,-352.84 699.6,-359.74"/>
</g>
<!-- orgs -->
<g id="node8" class="node">
<title>orgs</title>
<path fill="none" stroke="black" d="M237.5,-344C237.5,-344 207.5,-344 207.5,-344 201.5,-344 195.5,-338 195.5,-332 195.5,-332 195.5,-320 195.5,-320 195.5,-314 201.5,-308 207.5,-308 207.5,-308 237.5,-308 237.5,-308 243.5,-308 249.5,-314 249.5,-320 249.5,-320 249.5,-332 249.5,-332 249.5,-338 243.5,-344 237.5,-344"/>
<text xml:space="preserve" text-anchor="middle" x="222.5" y="-321.32" font-family="Times,serif" font-size="14.00">orgs</text>
</g>
<!-- api&#45;&gt;orgs -->
<g id="edge7" class="edge">
<title>api&#45;&gt;orgs</title>
<path fill="none" stroke="black" d="M144.39,-291.73C156.67,-297.19 171.49,-303.78 184.85,-309.71"/>
<polygon fill="black" stroke="black" points="183.22,-312.82 193.78,-313.68 186.06,-306.42 183.22,-312.82"/>
</g>
<!-- repos -->
<g id="node10" class="node">
<title>repos</title>
<path fill="none" stroke="black" d="M446.25,-344C446.25,-344 414.5,-344 414.5,-344 408.5,-344 402.5,-338 402.5,-332 402.5,-332 402.5,-320 402.5,-320 402.5,-314 408.5,-308 414.5,-308 414.5,-308 446.25,-308 446.25,-308 452.25,-308 458.25,-314 458.25,-320 458.25,-320 458.25,-332 458.25,-332 458.25,-338 452.25,-344 446.25,-344"/>
<text xml:space="preserve" text-anchor="middle" x="430.38" y="-321.32" font-family="Times,serif" font-size="14.00">repos</text>
</g>
<!-- api&#45;&gt;repos -->
<g id="edge11" class="edge">
<title>api&#45;&gt;repos</title>
<path fill="none" stroke="black" d="M144.2,-279.21C190,-278.43 287.3,-279.54 366.5,-299 374.92,-301.07 383.65,-304.15 391.84,-307.51"/>
<polygon fill="black" stroke="black" points="390.24,-310.63 400.81,-311.4 393.03,-304.21 390.24,-310.63"/>
</g>
<!-- rate_limit -->
<g id="node11" class="node">
<title>rate_limit</title>
<path fill="none" stroke="black" d="M253,-252C253,-252 192,-252 192,-252 186,-252 180,-246 180,-240 180,-240 180,-228 180,-228 180,-222 186,-216 192,-216 192,-216 253,-216 253,-216 259,-216 265,-222 265,-228 265,-228 265,-240 265,-240 265,-246 259,-252 253,-252"/>
<text xml:space="preserve" text-anchor="middle" x="222.5" y="-229.32" font-family="Times,serif" font-size="14.00">rate_limit</text>
</g>
<!-- api&#45;&gt;rate_limit -->
<g id="edge10" class="edge">
<title>api&#45;&gt;rate_limit</title>
<path fill="none" stroke="black" d="M144.39,-268.27C152.05,-264.87 160.7,-261.02 169.36,-257.17"/>
<polygon fill="black" stroke="black" points="170.78,-260.37 178.49,-253.11 167.93,-253.98 170.78,-260.37"/>
</g>
<!-- search -->
<g id="node14" class="node">
<title>search</title>
<path fill="none" stroke="black" d="M242.12,-198C242.12,-198 202.88,-198 202.88,-198 196.88,-198 190.88,-192 190.88,-186 190.88,-186 190.88,-174 190.88,-174 190.88,-168 196.88,-162 202.88,-162 202.88,-162 242.12,-162 242.12,-162 248.12,-162 254.12,-168 254.12,-174 254.12,-174 254.12,-186 254.12,-186 254.12,-192 248.12,-198 242.12,-198"/>
<text xml:space="preserve" text-anchor="middle" x="222.5" y="-175.32" font-family="Times,serif" font-size="14.00">search</text>
</g>
<!-- api&#45;&gt;search -->
<g id="edge15" class="edge">
<title>api&#45;&gt;search</title>
<path fill="none" stroke="black" d="M131.22,-261.6C142.97,-246.01 161.15,-223.59 180,-207 180.63,-206.45 181.27,-205.9 181.92,-205.35"/>
<polygon fill="black" stroke="black" points="183.85,-208.28 189.63,-199.41 179.58,-202.74 183.85,-208.28"/>
</g>
<!-- status -->
<g id="node15" class="node">
<title>status</title>
<path fill="none" stroke="black" d="M240.62,-144C240.62,-144 204.38,-144 204.38,-144 198.38,-144 192.38,-138 192.38,-132 192.38,-132 192.38,-120 192.38,-120 192.38,-114 198.38,-108 204.38,-108 204.38,-108 240.62,-108 240.62,-108 246.62,-108 252.62,-114 252.62,-120 252.62,-120 252.62,-132 252.62,-132 252.62,-138 246.62,-144 240.62,-144"/>
<text xml:space="preserve" text-anchor="middle" x="222.5" y="-121.33" font-family="Times,serif" font-size="14.00">status</text>
</g>
<!-- api&#45;&gt;status -->
<g id="edge16" class="edge">
<title>api&#45;&gt;status</title>
<path fill="none" stroke="black" d="M123.41,-261.81C131.98,-235.43 150.74,-186.08 180,-153 181.1,-151.75 182.28,-150.54 183.5,-149.36"/>
<polygon fill="black" stroke="black" points="185.58,-152.19 191.04,-143.1 181.11,-146.8 185.58,-152.19"/>
</g>
<!-- user -->
<g id="node16" class="node">
<title>user</title>
<path fill="none" stroke="black" d="M237.5,-90C237.5,-90 207.5,-90 207.5,-90 201.5,-90 195.5,-84 195.5,-78 195.5,-78 195.5,-66 195.5,-66 195.5,-60 201.5,-54 207.5,-54 207.5,-54 237.5,-54 237.5,-54 243.5,-54 249.5,-60 249.5,-66 249.5,-66 249.5,-78 249.5,-78 249.5,-84 243.5,-90 237.5,-90"/>
<text xml:space="preserve" text-anchor="middle" x="222.5" y="-67.33" font-family="Times,serif" font-size="14.00">user</text>
</g>
<!-- api&#45;&gt;user -->
<g id="edge17" class="edge">
<title>api&#45;&gt;user</title>
<path fill="none" stroke="black" d="M120.26,-261.7C125.37,-226.76 140.59,-149.57 180,-99 181.93,-96.52 184.16,-94.2 186.56,-92.04"/>
<polygon fill="black" stroke="black" points="188.24,-95.16 193.99,-86.27 183.95,-89.64 188.24,-95.16"/>
</g>
<!-- users -->
<g id="node17" class="node">
<title>users</title>
<path fill="none" stroke="black" d="M238,-36C238,-36 207,-36 207,-36 201,-36 195,-30 195,-24 195,-24 195,-12 195,-12 195,-6 201,0 207,0 207,0 238,0 238,0 244,0 250,-6 250,-12 250,-12 250,-24 250,-24 250,-30 244,-36 238,-36"/>
<text xml:space="preserve" text-anchor="middle" x="222.5" y="-13.32" font-family="Times,serif" font-size="14.00">users</text>
</g>
<!-- api&#45;&gt;users -->
<g id="edge18" class="edge">
<title>api&#45;&gt;users</title>
<path fill="none" stroke="black" d="M118.47,-261.64C120.43,-219.4 130.31,-113.73 180,-45 181.84,-42.45 184,-40.08 186.36,-37.89"/>
<polygon fill="black" stroke="black" points="188.05,-41.02 193.72,-32.07 183.71,-35.53 188.05,-41.02"/>
</g>
<!-- v2 -->
<g id="node4" class="node">
<title>v2</title>
<path fill="none" stroke="black" d="M348.75,-544C348.75,-544 318.75,-544 318.75,-544 312.75,-544 306.75,-538 306.75,-532 306.75,-532 306.75,-520 306.75,-520 306.75,-514 312.75,-508 318.75,-508 318.75,-508 348.75,-508 348.75,-508 354.75,-508 360.75,-514 360.75,-520 360.75,-520 360.75,-532 360.75,-532 360.75,-538 354.75,-544 348.75,-544"/>
<text xml:space="preserve" text-anchor="middle" x="333.75" y="-521.33" font-family="Times,serif" font-size="14.00">v2</text>
</g>
<!-- v1&#45;&gt;v2 -->
<g id="edge3" class="edge">
<title>v1&#45;&gt;v2</title>
<path fill="none" stroke="black" d="M249.95,-526C263.5,-526 280.24,-526 295.12,-526"/>
<polygon fill="black" stroke="black" points="295.03,-529.5 305.03,-526 295.03,-522.5 295.03,-529.5"/>
</g>
<!-- {org} -->
<g id="node9" class="node">
<title>{org}</title>
<path fill="none" stroke="black" d="M350.75,-344C350.75,-344 316.75,-344 316.75,-344 310.75,-344 304.75,-338 304.75,-332 304.75,-332 304.75,-320 304.75,-320 304.75,-314 310.75,-308 316.75,-308 316.75,-308 350.75,-308 350.75,-308 356.75,-308 362.75,-314 362.75,-320 362.75,-320 362.75,-332 362.75,-332 362.75,-338 356.75,-344 350.75,-344"/>
<text xml:space="preserve" text-anchor="middle" x="333.75" y="-321.32" font-family="Times,serif" font-size="14.00">{org}</text>
</g>
<!-- orgs&#45;&gt;{org} -->
<g id="edge8" class="edge">
<title>orgs&#45;&gt;{org}</title>
<path fill="none" stroke="black" d="M249.95,-326C262.9,-326 278.77,-326 293.14,-326"/>
<polygon fill="black" stroke="black" points="292.74,-329.5 302.74,-326 292.74,-322.5 292.74,-329.5"/>
</g>
<!-- {org}&#45;&gt;repos -->
<g id="edge9" class="edge">
<title>{org}&#45;&gt;repos</title>
<path fill="none" stroke="black" d="M363.14,-326C371.87,-326 381.62,-326 390.91,-326"/>
<polygon fill="black" stroke="black" points="390.79,-329.5 400.79,-326 390.79,-322.5 390.79,-329.5"/>
</g>
<!-- {owner} -->
<g id="node12" class="node">
<title>{owner}</title>
<path fill="none" stroke="black" d="M560.5,-344C560.5,-344 506.25,-344 506.25,-344 500.25,-344 494.25,-338 494.25,-332 494.25,-332 494.25,-320 494.25,-320 494.25,-314 500.25,-308 506.25,-308 506.25,-308 560.5,-308 560.5,-308 566.5,-308 572.5,-314 572.5,-320 572.5,-320 572.5,-332 572.5,-332 572.5,-338 566.5,-344 560.5,-344"/>
<text xml:space="preserve" text-anchor="middle" x="533.38" y="-321.32" font-family="Times,serif" font-size="14.00">{owner}</text>
</g>
<!-- repos&#45;&gt;{owner} -->
<g id="edge12" class="edge">
<title>repos&#45;&gt;{owner}</title>
<path fill="none" stroke="black" d="M458.71,-326C466.09,-326 474.32,-326 482.53,-326"/>
<polygon fill="black" stroke="black" points="482.51,-329.5 492.51,-326 482.51,-322.5 482.51,-329.5"/>
</g>
<!-- {repo} -->
<g id="node13" class="node">
<title>{repo}</title>
<path fill="none" stroke="black" d="M662.75,-344C662.75,-344 620.5,-344 620.5,-344 614.5,-344 608.5,-338 608.5,-332 608.5,-332 608.5,-320 608.5,-320 608.5,-314 614.5,-308 620.5,-308 620.5,-308 662.75,-308 662.75,-308 668.75,-308 674.75,-314 674.75,-320 674.75,-320 674.75,-332 674.75,-332 674.75,-338 668.75,-344 662.75,-344"/>
<text xml:space="preserve" text-anchor="middle" x="641.62" y="-321.32" font-family="Times,serif" font-size="14.00">{repo}</text>
</g>
<!-- {owner}&#45;&gt;{repo} -->
<g id="edge13" class="edge">
<title>{owner}&#45;&gt;{repo}</title>
<path fill="none" stroke="black" d="M572.73,-326C580.56,-326 588.85,-326 596.85,-326"/>
<polygon fill="black" stroke="black" points="596.76,-329.5 606.76,-326 596.76,-322.5 596.76,-329.5"/>
</g>
<!-- {repo}&#45;&gt;issues -->
<g id="edge14" class="edge">
<title>{repo}&#45;&gt;issues</title>
<path fill="none" stroke="black" d="M675.01,-333.66C682.74,-335.49 691.1,-337.46 699.16,-339.37"/>
<polygon fill="black" stroke="black" points="698.25,-342.75 708.78,-341.65 699.86,-335.94 698.25,-342.75"/>
</g>
<!-- {user} -->
<g id="node18" class="node">
<title>{user}</title>
<path fill="none" stroke="black" d="M354.5,-36C354.5,-36 313,-36 313,-36 307,-36 301,-30 301,-24 301,-24 301,-12 301,-12 301,-6 307,0 313,0 313,0 354.5,0 354.5,0 360.5,0 366.5,-6 366.5,-12 366.5,-12 366.5,-24 366.5,-24 366.5,-30 360.5,-36 354.5,-36"/>
<text xml:space="preserve" text-anchor="middle" x="333.75" y="-13.32" font-family="Times,serif" font-size="14.00">{user}</text>
</g>
<!-- users&#45;&gt;{user} -->
<g id="edge19" class="edge">
<title>users&#45;&gt;{user}</title>
<path fill="none" stroke="black" d="M250.23,-18C262.05,-18 276.26,-18 289.53,-18"/>
<polygon fill="black" stroke="black" points="289.35,-21.5 299.35,-18 289.35,-14.5 289.35,-21.5"/>
</g>
</g>
</svg>
