<?xml version="1.0" encoding="UTF-8" standalone="no"?>
<!DOCTYPE svg PUBLIC "-//W3C//DTD SVG 1.1//EN"
 "http://www.w3.org/Graphics/SVG/1.1/DTD/svg11.dtd">
<!-- Generated by graphviz version 14.1.2 (0)
 -->
<!-- Title: API Pages: 1 -->
<svg width="227pt" height="422pt"
 viewBox="0.00 0.00 227.00 422.00" xmlns="http://www.w3.org/2000/svg" xmlns:xlink="http://www.w3.org/1999/xlink">
<g id="graph0" class="graph" transform="scale(1 1) rotate(0) translate(4 418)">
<title>API</title>
<polygon fill="white" stroke="none" points="-4,4 -4,-418 222.74,-418 222.74,4 -4,4"/>
<!-- root -->
<g id="node1" class="node">
<title>root</title>
<ellipse fill="none" stroke="black" cx="31.74" cy="-207" rx="31.74" ry="18"/>
<text xml:space="preserve" text-anchor="middle" x="31.74" y="-202.32" font-family="Times,serif" font-size="14.00">root</text>
</g>
<!-- users -->
<g id="node2" class="node">
<title>users</title>
<ellipse fill="none" stroke="black" cx="159.11" cy="-396" rx="38.58" ry="18"/>
<text xml:space="preserve" text-anchor="middle" x="159.11" y="-391.32" font-family="Times,serif" font-size="14.00">users</text>
</g>
<!-- root&#45;&gt;users -->
<g id="edge1" class="edge">
<title>root&#45;&gt;users</title>
<path fill="none" stroke="black" d="M35.73,-225.18C41.99,-257.9 59.35,-327.2 99.48,-369 104.16,-373.87 109.88,-377.94 115.89,-381.32"/>
<polygon fill="black" stroke="black" points="114.28,-384.43 124.8,-385.71 117.37,-378.15 114.28,-384.43"/>
</g>
<!-- repos -->
<g id="node3" class="node">
<title>repos</title>
<ellipse fill="none" stroke="black" cx="159.11" cy="-342" rx="39.11" ry="18"/>
<text xml:space="preserve" text-anchor="middle" x="159.11" y="-337.32" font-family="Times,serif" font-size="14.00">repos</text>
</g>
<!-- root&#45;&gt;repos -->
<g id="edge2" class="edge">
<title>root&#45;&gt;repos</title>
<path fill="none" stroke="black" d="M39.71,-224.52C49.78,-247.89 70.43,-289.29 99.48,-315 104.48,-319.42 110.33,-323.25 116.36,-326.52"/>
<polygon fill="black" stroke="black" points="114.68,-329.6 125.21,-330.84 117.75,-323.3 114.68,-329.6"/>
</g>
<!-- orgs -->
<g id="node4" class="node">
<title>orgs</title>
<ellipse fill="none" stroke="black" cx="159.11" cy="-288" rx="33.32" ry="18"/>
<text xml:space="preserve" text-anchor="middle" x="159.11" y="-283.32" font-family="Times,serif" font-size="14.00">orgs</text>
</g>
<!-- root&#45;&gt;orgs -->
<g id="edge3" class="edge">
<title>root&#45;&gt;orgs</title>
<path fill="none" stroke="black" d="M49.42,-222.46C62.41,-234 81.25,-249.67 99.48,-261 106.34,-265.26 113.98,-269.26 121.42,-272.81"/>
<polygon fill="black" stroke="black" points="119.78,-275.91 130.33,-276.88 122.69,-269.54 119.78,-275.91"/>
</g>
<!-- issues -->
<g id="node5" class="node">
<title>issues</title>
<ellipse fill="none" stroke="black" cx="159.11" cy="-234" rx="42.26" ry="18"/>
<text xml:space="preserve" text-anchor="middle" x="159.11" y="-229.32" font-family="Times,serif" font-size="14.00">issues</text>
</g>
<!-- root&#45;&gt;issues -->
<g id="edge4" class="edge">
<title>root&#45;&gt;issues</title>
<path fill="none" stroke="black" d="M61.82,-213.26C76.16,-216.35 93.83,-220.16 110.1,-223.66"/>
<polygon fill="black" stroke="black" points="109.1,-227.02 119.61,-225.71 110.57,-220.18 109.1,-227.02"/>
</g>
<!-- search -->
<g id="node6" class="node">
<title>search</title>
<ellipse fill="none" stroke="black" cx="159.11" cy="-180" rx="44.37" ry="18"/>
<text xml:space="preserve" text-anchor="middle" x="159.11" y="-175.32" font-family="Times,serif" font-size="14.00">search</text>
</g>
<!-- root&#45;&gt;search -->
<g id="edge5" class="edge">
<title>root&#45;&gt;search</title>
<path fill="none" stroke="black" d="M61.82,-200.74C75.56,-197.78 92.35,-194.16 108.04,-190.78"/>
<polygon fill="black" stroke="black" points="108.7,-194.22 117.74,-188.7 107.22,-187.38 108.7,-194.22"/>
</g>
<!-- graphql -->
<g id="node7" class="node">
<title>graphql</title>
<ellipse fill="none" stroke="black" cx="159.11" cy="-126" rx="50.16" ry="18"/>
<text xml:space="preserve" text-anchor="middle" x="159.11" y="-121.33" font-family="Times,serif" font-size="14.00">graphql</text>
</g>
<!-- root&#45;&gt;graphql -->
<g id="edge6" class="edge">
<title>root&#45;&gt;graphql</title>
<path fill="none" stroke="black" d="M49.42,-191.54C62.41,-180 81.25,-164.33 99.48,-153 104.3,-150.01 109.5,-147.15 114.74,-144.48"/>
<polygon fill="black" stroke="black" points="115.97,-147.77 123.44,-140.26 112.91,-141.48 115.97,-147.77"/>
</g>
<!-- rate_limit -->
<g id="node8" class="node">
<title>rate_limit</title>
<ellipse fill="none" stroke="black" cx="159.11" cy="-72" rx="59.63" ry="18"/>
<text xml:space="preserve" text-anchor="middle" x="159.11" y="-67.33" font-family="Times,serif" font-size="14.00">rate_limit</text>
</g>
<!-- root&#45;&gt;rate_limit -->
<g id="edge7" class="edge">
<title>root&#45;&gt;rate_limit</title>
<path fill="none" stroke="black" d="M39.71,-189.48C49.78,-166.11 70.43,-124.71 99.48,-99 102.6,-96.24 106.06,-93.71 109.68,-91.4"/>
<polygon fill="black" stroke="black" points="111.25,-94.54 118.22,-86.56 107.8,-88.45 111.25,-94.54"/>
</g>
<!-- user -->
<g id="node9" class="node">
<title>user</title>
<ellipse fill="none" stroke="black" cx="159.11" cy="-18" rx="33.32" ry="18"/>
<text xml:space="preserve" text-anchor="middle" x="159.11" y="-13.32" font-family="Times,serif" font-size="14.00">user</text>
</g>
<!-- root&#45;&gt;user -->
<g id="edge8" class="edge">
<title>root&#45;&gt;user</title>
<path fill="none" stroke="black" d="M35.73,-188.82C41.99,-156.1 59.35,-86.8 99.48,-45 104.91,-39.35 111.74,-34.78 118.8,-31.11"/>
<polygon fill="black" stroke="black" points="120.17,-34.33 127.81,-26.99 117.26,-27.96 120.17,-34.33"/>
</g>
</g>
</svg>
