<?xml version="1.0" encoding="UTF-8" standalone="no"?>
<!DOCTYPE svg PUBLIC "-//W3C//DTD SVG 1.1//EN"
 "http://www.w3.org/Graphics/SVG/1.1/DTD/svg11.dtd">
<!-- Generated by graphviz version 14.1.2 (0)
 -->
<!-- Title: API Pages: 1 -->
<svg width="978pt" height="552pt"
 viewBox="0.00 0.00 978.00 552.00" xmlns="http://www.w3.org/2000/svg" xmlns:xlink="http://www.w3.org/1999/xlink">
<g id="graph0" class="graph" transform="scale(1 1) rotate(0) translate(4 548)">
<title>API</title>
<polygon fill="white" stroke="none" points="-4,4 -4,-548 973.79,-548 973.79,4 -4,4"/>
<!-- root -->
<g id="node1" class="node">
<title>root</title>
<ellipse fill="#eeeeee" stroke="black" cx="30.16" cy="-280" rx="30.16" ry="18"/>
<text xml:space="preserve" text-anchor="middle" x="30.16" y="-275.32" font-family="Helvetica,sans-Serif" font-size="14.00">root</text>
</g>
<!-- api -->
<g id="node2" class="node">
<title>api</title>
<polygon fill="#e3f2fd" stroke="black" points="150.33,-298 96.33,-298 96.33,-262 150.33,-262 150.33,-298"/>
<text xml:space="preserve" text-anchor="middle" x="123.33" y="-275.32" font-family="Helvetica,sans-Serif" font-size="14.00">api</text>
</g>
<!-- root&#45;&gt;api -->
<g id="edge1" class="edge">
<title>root&#45;&gt;api</title>
<path fill="none" stroke="black" d="M60.76,-280C68.38,-280 76.67,-280 84.64,-280"/>
<polygon fill="black" stroke="black" points="84.44,-283.5 94.44,-280 84.44,-276.5 84.44,-283.5"/>
</g>
<!-- v1 -->
<g id="node3" class="node">
<title>v1</title>
<polygon fill="#e3f2fd" stroke="black" points="253.58,-544 199.58,-544 199.58,-508 253.58,-508 253.58,-544"/>
<text xml:space="preserve" text-anchor="middle" x="226.58" y="-521.33" font-family="Helvetica,sans-Serif" font-size="14.00">v1</text>
</g>
<!-- api&#45;&gt;v1 -->
<g id="edge2" class="edge">
<title>api&#45;&gt;v1</title>
<path fill="none" stroke="black" d="M125.36,-298.23C128.46,-338.21 140.51,-435.09 186.33,-499 187.63,-500.81 189.09,-502.55 190.67,-504.19"/>
<polygon fill="black" stroke="black" points="188.3,-506.77 198.13,-510.71 192.9,-501.5 188.3,-506.77"/>
</g>
<!-- graphql -->
<g id="node5" class="node">
<title>graphql</title>
<polygon fill="#e3f2fd" stroke="black" points="261.58,-490 191.58,-490 191.58,-454 261.58,-454 261.58,-490"/>
<text xml:space="preserve" text-anchor="middle" x="226.58" y="-467.32" font-family="Helvetica,sans-Serif" font-size="14.00">graphql</text>
</g>
<!-- api&#45;&gt;graphql -->
<g id="edge4" class="edge">
<title>api&#45;&gt;graphql</title>
<path fill="none" stroke="black" d="M127.47,-298.37C133.79,-330.86 150.6,-399.33 186.33,-445 186.48,-445.2 186.63,-445.39 186.79,-445.58"/>
<polygon fill="black" stroke="black" points="184.21,-447.95 193.73,-452.61 189.19,-443.03 184.21,-447.95"/>
</g>
<!-- health -->
<g id="node6" class="node">
<title>health</title>
<polygon fill="#e3f2fd" stroke="black" points="256.33,-436 196.83,-436 196.83,-400 256.33,-400 256.33,-436"/>
<text xml:space="preserve" text-anchor="middle" x="226.58" y="-413.32" font-family="Helvetica,sans-Serif" font-size="14.00">health</text>
</g>
<!-- api&#45;&gt;health -->
<g id="edge5" class="edge">
<title>api&#45;&gt;health</title>
<path fill="none" stroke="black" d="M132.45,-298.14C142.92,-320.31 162.62,-358.31 186.33,-386 188.13,-388.1 190.08,-390.17 192.12,-392.19"/>
<polygon fill="black" stroke="black" points="189.41,-394.45 199.16,-398.6 194.12,-389.28 189.41,-394.45"/>
</g>
<!-- issues -->
<g id="node7" class="node">
<title>issues</title>
<polygon fill="#e3f2fd" stroke="black" points="969.79,-367 910.29,-367 910.29,-331 969.79,-331 969.79,-367"/>
<text xml:space="preserve" text-anchor="middle" x="940.04" y="-344.32" font-family="Helvetica,sans-Serif" font-size="14.00">issues</text>
</g>
<!-- api&#45;&gt;issues -->
<g id="edge6" class="edge">
<title>api&#45;&gt;issues</title>
<path fill="none" stroke="black" d="M134.22,-298.18C144.7,-315.48 162.95,-340.65 186.33,-353 257.35,-390.52 285.73,-372 366.06,-372 366.06,-372 366.06,-372 634.69,-372 729.62,-372 840.74,-360.74 898.9,-353.97"/>
<polygon fill="black" stroke="black" points="899.12,-357.47 908.64,-352.82 898.3,-350.52 899.12,-357.47"/>
</g>
<!-- orgs -->
<g id="node8" class="node">
<title>orgs</title>
<polygon fill="#e3f2fd" stroke="black" points="253.58,-344 199.58,-344 199.58,-308 253.58,-308 253.58,-344"/>
<text xml:space="preserve" text-anchor="middle" x="226.58" y="-321.32" font-family="Helvetica,sans-Serif" font-size="14.00">orgs</text>
</g>
<!-- api&#45;&gt;orgs -->
<g id="edge7" class="edge">
<title>api&#45;&gt;orgs</title>
<path fill="none" stroke="black" d="M150.67,-291.97C162.38,-297.29 176.38,-303.65 189.08,-309.42"/>
<polygon fill="black" stroke="black" points="187.44,-312.52 197.99,-313.47 190.34,-306.15 187.44,-312.52"/>
</g>
<!-- repos -->
<g id="node10" class="node">
<title>repos</title>
<polygon fill="#e3f2fd" stroke="black" points="521.55,-344 467.3,-344 467.3,-308 521.55,-308 521.55,-344"/>
<text xml:space="preserve" text-anchor="middle" x="494.42" y="-321.32" font-family="Helvetica,sans-Serif" font-size="14.00">repos</text>
</g>
<!-- api&#45;&gt;repos -->
<g id="edge11" class="edge">
<title>api&#45;&gt;repos</title>
<path fill="none" stroke="black" d="M150.65,-278.59C204.3,-276.39 329.8,-274.6 431.3,-299 439.72,-301.03 448.45,-304.12 456.6,-307.51"/>
<polygon fill="black" stroke="black" points="454.97,-310.61 465.53,-311.44 457.79,-304.21 454.97,-310.61"/>
</g>
<!-- rate_limit -->
<g id="node11" class="node">
<title>rate_limit</title>
<polygon fill="#e3f2fd" stroke="black" points="266.83,-252 186.33,-252 186.33,-216 266.83,-216 266.83,-252"/>
<text xml:space="preserve" text-anchor="middle" x="226.58" y="-229.32" font-family="Helvetica,sans-Serif" font-size="14.00">rate_limit</text>
</g>
<!-- api&#45;&gt;rate_limit -->
<g id="edge10" class="edge">
<title>api&#45;&gt;rate_limit</title>
<path fill="none" stroke="black" d="M150.67,-268.03C158.33,-264.55 166.97,-260.63 175.58,-256.71"/>
<polygon fill="black" stroke="black" points="176.98,-259.93 184.63,-252.6 174.08,-253.55 176.98,-259.93"/>
</g>
<!-- search -->
<g id="node14" class="node">
<title>search</title>
<polygon fill="#e3f2fd" stroke="black" points="257.45,-198 195.7,-198 195.7,-162 257.45,-162 257.45,-198"/>
<text xml:space="preserve" text-anchor="middle" x="226.58" y="-175.32" font-family="Helvetica,sans-Serif" font-size="14.00">search</text>
</g>
<!-- api&#45;&gt;search -->
<g id="edge15" class="edge">
<title>api&#45;&gt;search</title>
<path fill="none" stroke="black" d="M137.66,-261.73C149.47,-246.2 167.7,-223.83 186.33,-207 186.95,-206.44 187.58,-205.88 188.23,-205.32"/>
<polygon fill="black" stroke="black" points="190.2,-208.23 195.84,-199.25 185.84,-202.75 190.2,-208.23"/>
</g>
<!-- status -->
<g id="node15" class="node">
<title>status</title>
<polygon fill="#e3f2fd" stroke="black" points="255.95,-144 197.2,-144 197.2,-108 255.95,-108 255.95,-144"/>
<text xml:space="preserve" text-anchor="middle" x="226.58" y="-121.33" font-family="Helvetica,sans-Serif" font-size="14.00">status</text>
</g>
<!-- api&#45;&gt;status -->
<g id="edge16" class="edge">
<title>api&#45;&gt;status</title>
<path fill="none" stroke="black" d="M129.85,-261.91C138.56,-235.65 157.5,-186.46 186.33,-153 187.11,-152.09 187.93,-151.2 188.78,-150.32"/>
<polygon fill="black" stroke="black" points="190.8,-153.21 195.95,-143.95 186.15,-147.98 190.8,-153.21"/>
</g>
<!-- user -->
<g id="node16" class="node">
<title>user</title>
<polygon fill="#e3f2fd" stroke="black" points="253.58,-90 199.58,-90 199.58,-54 253.58,-54 253.58,-90"/>
<text xml:space="preserve" text-anchor="middle" x="226.58" y="-67.33" font-family="Helvetica,sans-Serif" font-size="14.00">user</text>
</g>
<!-- api&#45;&gt;user -->
<g id="edge17" class="edge">
<title>api&#45;&gt;user</title>
<path fill="none" stroke="black" d="M126.74,-261.52C132.1,-226.61 147.68,-149.94 186.33,-99 187.68,-97.22 189.18,-95.52 190.79,-93.89"/>
<polygon fill="black" stroke="black" points="193.01,-96.59 198.32,-87.43 188.46,-91.28 193.01,-96.59"/>
</g>
<!-- users -->
<g id="node17" class="node">
<title>users</title>
<polygon fill="#e3f2fd" stroke="black" points="253.7,-36 199.45,-36 199.45,0 253.7,0 253.7,-36"/>
<text xml:space="preserve" text-anchor="middle" x="226.58" y="-13.32" font-family="Helvetica,sans-Serif" font-size="14.00">users</text>
</g>
<!-- api&#45;&gt;users -->
<g id="edge18" class="edge">
<title>api&#45;&gt;users</title>
<path fill="none" stroke="black" d="M124.93,-261.72C127.14,-219.68 137.53,-114.36 186.33,-45 187.61,-43.17 189.06,-41.43 190.63,-39.78"/>
<polygon fill="black" stroke="black" points="192.86,-42.47 198.07,-33.24 188.25,-37.21 192.86,-42.47"/>
</g>
<!-- v2 -->
<g id="node4" class="node">
<title>v2</title>
<polygon fill="#e3f2fd" stroke="black" points="394.06,-544 340.06,-544 340.06,-508 394.06,-508 394.06,-544"/>
<text xml:space="preserve" text-anchor="middle" x="367.06" y="-521.33" font-family="Helvetica,sans-Serif" font-size="14.00">v2</text>
</g>
<!-- v1&#45;&gt;v2 -->
<g id="edge3" class="edge">
<title>v1&#45;&gt;v2</title>
<path fill="none" stroke="black" d="M253.95,-526C275.03,-526 304.85,-526 328.44,-526"/>
<polygon fill="black" stroke="black" points="328.27,-529.5 338.27,-526 328.27,-522.5 328.27,-529.5"/>
</g>
<!-- {org} -->
<g id="node9" class="node">
<title>{org}</title>
<polygon fill="#ffe8cc" stroke="black" points="367.06,-344 311.01,-326 367.06,-308 423.11,-326 367.06,-344"/>
<text xml:space="preserve" text-anchor="middle" x="367.06" y="-321.32" font-family="Helvetica,sans-Serif" font-size="14.00">{org}</text>
</g>
<!-- orgs&#45;&gt;{org} -->
<g id="edge8" class="edge">
<title>orgs&#45;&gt;{org}</title>
<path fill="none" stroke="black" d="M253.95,-326C266.58,-326 282.35,-326 298.03,-326"/>
<polygon fill="black" stroke="black" points="297.88,-329.5 307.88,-326 297.88,-322.5 297.88,-329.5"/>
</g>
<!-- {org}&#45;&gt;repos -->
<g id="edge9" class="edge">
<title>{org}&#45;&gt;repos</title>
<path fill="none" stroke="black" d="M424.51,-326C435.04,-326 445.81,-326 455.62,-326"/>
<polygon fill="black" stroke="black" points="455.5,-329.5 465.5,-326 455.5,-322.5 455.5,-329.5"/>
</g>
<!-- {owner} -->
<g id="node12" class="node">
<title>{owner}</title>
<polygon fill="#ffe8cc" stroke="black" points="633.69,-344 557.55,-326 633.69,-308 709.83,-326 633.69,-344"/>
<text xml:space="preserve" text-anchor="middle" x="633.69" y="-321.32" font-family="Helvetica,sans-Serif" font-size="14.00">{owner}</text>
</g>
<!-- repos&#45;&gt;{owner} -->
<g id="edge12" class="edge">
<title>repos&#45;&gt;{owner}</title>
<path fill="none" stroke="black" d="M521.89,-326C528.56,-326 536.1,-326 544.03,-326"/>
<polygon fill="black" stroke="black" points="543.94,-329.5 553.94,-326 543.94,-322.5 543.94,-329.5"/>
</g>
<!-- {repo} -->
<g id="node13" class="node">
<title>{repo}</title>
<polygon fill="#ffe8cc" stroke="black" points="810.06,-344 745.83,-326 810.06,-308 874.29,-326 810.06,-344"/>
<text xml:space="preserve" text-anchor="middle" x="810.06" y="-321.32" font-family="Helvetica,sans-Serif" font-size="14.00">{repo}</text>
</g>
<!-- {owner}&#45;&gt;{repo} -->
<g id="edge13" class="edge">
<title>{owner}&#45;&gt;{repo}</title>
<path fill="none" stroke="black" d="M711.93,-326C718.82,-326 725.79,-326 732.67,-326"/>
<polygon fill="black" stroke="black" points="732.61,-329.5 742.61,-326 732.61,-322.5 732.61,-329.5"/>
</g>
<!-- {repo}&#45;&gt;issues -->
<g id="edge14" class="edge">
<title>{repo}&#45;&gt;issues</title>
<path fill="none" stroke="black" d="M850.5,-333.09C865.84,-335.84 883.39,-339 898.8,-341.77"/>
<polygon fill="black" stroke="black" points="898.14,-345.21 908.6,-343.53 899.38,-338.32 898.14,-345.21"/>
</g>
<!-- {user} -->
<g id="node18" class="node">
<title>{user}</title>
<polygon fill="#ffe8cc" stroke="black" points="367.06,-36 302.83,-18 367.06,0 431.3,-18 367.06,-36"/>
<text xml:space="preserve" text-anchor="middle" x="367.06" y="-13.32" font-family="Helvetica,sans-Serif" font-size="14.00">{user}</text>
</g>
<!-- users&#45;&gt;{user} -->
<g id="edge19" class="edge">
<title>users&#45;&gt;{user}</title>
<path fill="none" stroke="black" d="M253.95,-18C264.39,-18 276.97,-18 289.88,-18"/>
<polygon fill="black" stroke="black" points="289.75,-21.5 299.75,-18 289.75,-14.5 289.75,-21.5"/>
</g>
</g>
</svg>
