<svg xmlns="http://www.w3.org/2000/svg" xmlns:xlink="http://www.w3.org/1999/xlink" width="890" height="434.2"><rect width="890" height="434.2" rx="0" ry="0" class="a"/><svg height="434.2" viewBox="0 0 89 43.42" width="890" xmlns="http://www.w3.org/2000/svg" xmlns:xlink="http://www.w3.org/1999/xlink"><style>@keyframes f{0%{transform:translateX(0)}4.3%{transform:translateX(-89px)}to{transform:translateX(-178px)}}.a{fill:#282d35}.c{fill:#b9c0cb;white-space:pre}</style><g font-family="Monaco,Consolas,Menlo,'Bitstream Vera Sans Mono','Powerline Symbols',monospace" font-size="1.67"><defs><symbol id="1"><text y="1.67" class="c">⚡</text><text x="2.004" y="1.67" class="c">RESTLESS</text><text x="11.022" y="1.67" class="c">MAGISWARM</text></symbol><symbol id="2"><text y="1.67" class="c">release</text><text x="8.016" y="1.67" class="c">the</text><text x="12.024" y="1.67" class="c">BLCKSWAN</text><text x="21.042" y="1.67" class="c">swarm</text></symbol><symbol id="a"><path fill="transparent" d="M0 0h89v20H0z"/></symbol><symbol id="b"><path fill="#6f7683" d="M0 0h1.102v2.171H0z"/></symbol></defs><path class="a" d="M0 0h89v43.42H0z"/><g style="animation-duration:.179178s;animation-iteration-count:infinite;animation-name:f;animation-timing-function:steps(1,end)"><svg width="267"><svg><use xlink:href="#a"/><use xlink:href="#b" x="-.004"/></svg><svg x="89"><use xlink:href="#a"/><use xlink:href="#b" x="-.004" y="6.488"/><use xlink:href="#1"/><use xlink:href="#2" y="2.171"/></svg><svg x="178"><use xlink:href="#a"/><use xlink:href="#b" x="-.004" y="13.001"/><use xlink:href="#1"/><use xlink:href="#2" y="2.171"/><text y="8.183" class="c">#</text><text x="2.004" y="8.183" class="c">github.com/bspippi1337/restless/internal/core/magiswarm</text><text y="10.354" class="c">internal/core/magiswarm/report.go:10:6:</text><text x="40.08" y="10.354" class="c">WriteReportFiles</text><text x="57.114" y="10.354" class="c">redeclared</text><text x="68.136" y="10.354" class="c">in</text><text x="71.142" y="10.354" class="c">this</text><text x="76.152" y="10.354" class="c">block</text><text x="8.016" y="12.525" class="c">internal/core/magiswarm/magiswarm.go:458:6:</text><text x="52.104" y="12.525" class="c">other</text><text x="58.116" y="12.525" class="c">declaration</text><text x="70.14" y="12.525" class="c">of</text><text x="73.146" y="12.525" class="c">WriteReportFiles</text></svg></svg></g></g></svg></svg>