<svg xmlns="http://www.w3.org/2000/svg" xmlns:xlink="http://www.w3.org/1999/xlink" width="970" height="534.2"><rect width="970" height="534.2" rx="5" ry="5" class="a"/><svg y="0%" x="0%"><circle cx="20" cy="20" r="6" fill="#ff5f58"/><circle cx="40" cy="20" r="6" fill="#ffbd2e"/><circle cx="60" cy="20" r="6" fill="#18c132"/></svg><svg height="434.2" viewBox="0 0 89 43.42" width="890" x="35" xmlns="http://www.w3.org/2000/svg" xmlns:xlink="http://www.w3.org/1999/xlink" y="70"><style>@keyframes i{0%{transform:translateX(0)}.1%{transform:translateX(-178px)}12.5%{transform:translateX(-267px)}25%{transform:translateX(-356px)}49.9%{transform:translateX(-445px)}62.5%{transform:translateX(-534px)}87.4%{transform:translateX(-623px)}to{transform:translateX(-712px)}}.a{fill:#282d35}.f{fill:#b9c0cb;white-space:pre}</style><g font-family="Monaco,Consolas,Menlo,'Bitstream Vera Sans Mono','Powerline Symbols',monospace" font-size="1.67"><defs><symbol id="1"><text y="1.67" class="f">⚡</text><text x="2.004" y="1.67" class="f">Restless</text><text x="11.022" y="1.67" class="f">API</text><text x="15.03" y="1.67" class="f">exploration</text></symbol><symbol id="2"><text y="1.67" class="f">$</text><text x="2.004" y="1.67" class="f">restless</text><text x="11.022" y="1.67" class="f">discover</text><text x="20.04" y="1.67" class="f">https://api.github.com</text></symbol><symbol id="3"><text y="1.67" class="f">https://api.github.com</text></symbol><symbol id="4"><text y="1.67" class="f">├──</text><text x="4.008" y="1.67" class="f">/</text></symbol><symbol id="5"><text y="1.67" class="f">├──</text><text x="4.008" y="1.67" class="f">/users</text></symbol><symbol id="6"><text y="1.67" class="f">├──</text><text x="4.008" y="1.67" class="f">/repos</text></symbol><symbol id="7"><text y="1.67" class="f">├──</text><text x="4.008" y="1.67" class="f">/orgs</text></symbol><symbol id="8"><text y="1.67" class="f">└──</text><text x="4.008" y="1.67" class="f">/search</text></symbol><symbol id="9"><text y="1.67" class="f">$</text><text x="2.004" y="1.67" class="f">restless</text><text x="11.022" y="1.67" class="f">map</text><text x="15.03" y="1.67" class="f">https://api.github.com</text></symbol><symbol id="10"><text y="1.67" class="f">├──</text><text x="4.008" y="1.67" class="f">users</text></symbol><symbol id="11"><text y="1.67" class="f">│</text><text x="4.008" y="1.67" class="f">├──</text><text x="8.016" y="1.67" class="f">/{user}</text></symbol><symbol id="12"><text y="1.67" class="f">│</text><text x="4.008" y="1.67" class="f">└──</text><text x="8.016" y="1.67" class="f">/{user}/repos</text></symbol><symbol id="13"><text y="1.67" class="f">├──</text><text x="4.008" y="1.67" class="f">repos</text></symbol><symbol id="14"><text y="1.67" class="f">│</text><text x="4.008" y="1.67" class="f">├──</text><text x="8.016" y="1.67" class="f">/{owner}/{repo}</text></symbol><symbol id="15"><text y="1.67" class="f">│</text><text x="4.008" y="1.67" class="f">└──</text><text x="8.016" y="1.67" class="f">/{owner}/{repo}/issues</text></symbol><symbol id="16"><text y="1.67" class="f">└──</text><text x="4.008" y="1.67" class="f">search</text></symbol><symbol id="17"><text y="1.67" class="f">$</text><text x="2.004" y="1.67" class="f">restless</text><text x="11.022" y="1.67" class="f">auto</text><text x="16.032" y="1.67" class="f">https://api.github.com</text></symbol><symbol id="a"><path fill="transparent" d="M0 0h89v20H0z"/></symbol><symbol id="b"><path fill="#6f7683" d="M0 0h1.102v2.171H0z"/></symbol></defs><path class="a" d="M0 0h89v43.42H0z"/><g style="animation-duration:8.046948s;animation-iteration-count:infinite;animation-name:i;animation-timing-function:steps(1,end)"><svg width="801"><svg><use xlink:href="#a"/><use xlink:href="#b" x="-.004"/></svg><svg x="89"><use xlink:href="#a"/><use xlink:href="#b" x="-.004"/></svg><svg x="178"><use xlink:href="#a"/><use xlink:href="#b" x="-.004" y="2.146"/><use xlink:href="#1"/></svg><svg x="267"><use xlink:href="#a"/><use xlink:href="#b" x="-.004" y="6.488"/><use xlink:href="#1"/><use xlink:href="#2" y="4.342"/></svg><svg x="356"><use xlink:href="#a"/><use xlink:href="#b" x="-.004" y="19.514"/><use xlink:href="#1"/><use xlink:href="#2" y="4.342"/><use xlink:href="#3" y="6.513"/><use xlink:href="#4" y="8.684"/><use xlink:href="#5" y="10.855"/><use xlink:href="#6" y="13.026"/><use xlink:href="#7" y="15.197"/><use xlink:href="#8" y="17.368"/></svg><svg x="445"><use xlink:href="#a"/><use xlink:href="#b" x="-.004" y="23.856"/><use xlink:href="#1"/><use xlink:href="#2" y="4.342"/><use xlink:href="#3" y="6.513"/><use xlink:href="#4" y="8.684"/><use xlink:href="#5" y="10.855"/><use xlink:href="#6" y="13.026"/><use xlink:href="#7" y="15.197"/><use xlink:href="#8" y="17.368"/><use xlink:href="#9" y="21.71"/></svg><svg x="534"><use xlink:href="#a"/><use xlink:href="#b" x="-.004" y="41.224"/><use xlink:href="#1"/><use xlink:href="#2" y="4.342"/><use xlink:href="#3" y="6.513"/><use xlink:href="#4" y="8.684"/><use xlink:href="#5" y="10.855"/><use xlink:href="#6" y="13.026"/><use xlink:href="#7" y="15.197"/><use xlink:href="#8" y="17.368"/><use xlink:href="#9" y="21.71"/><use xlink:href="#3" y="23.881"/><use xlink:href="#10" y="26.052"/><use xlink:href="#11" y="28.223"/><use xlink:href="#12" y="30.394"/><use xlink:href="#13" y="32.565"/><use xlink:href="#14" y="34.736"/><use xlink:href="#15" y="36.907"/><use xlink:href="#16" y="39.078"/></svg><svg x="623"><use xlink:href="#a"/><use xlink:href="#b" x="-.004" y="41.224"/><use xlink:href="#2"/><use xlink:href="#3" y="2.171"/><use xlink:href="#4" y="4.342"/><use xlink:href="#5" y="6.513"/><use xlink:href="#6" y="8.684"/><use xlink:href="#7" y="10.855"/><use xlink:href="#8" y="13.026"/><use xlink:href="#9" y="17.368"/><use xlink:href="#3" y="19.539"/><use xlink:href="#10" y="21.71"/><use xlink:href="#11" y="23.881"/><use xlink:href="#12" y="26.052"/><use xlink:href="#13" y="28.223"/><use xlink:href="#14" y="30.394"/><use xlink:href="#15" y="32.565"/><use xlink:href="#16" y="34.736"/><use xlink:href="#17" y="39.078"/></svg><svg x="712"><use xlink:href="#a"/><use xlink:href="#b" x="-.004" y="41.224"/><use xlink:href="#9"/><use xlink:href="#3" y="2.171"/><use xlink:href="#10" y="4.342"/><use xlink:href="#11" y="6.513"/><use xlink:href="#12" y="8.684"/><use xlink:href="#13" y="10.855"/><use xlink:href="#14" y="13.026"/><use xlink:href="#15" y="15.197"/><use xlink:href="#16" y="17.368"/><use xlink:href="#17" y="21.71"/><text y="25.551" class="f">⚡</text><text x="2.004" y="25.551" class="f">restless</text><text x="11.022" y="25.551" class="f">autonomous</text><text x="22.044" y="25.551" class="f">mode</text><text y="27.722" class="f">target:</text><text x="8.016" y="27.722" class="f">https://api.github.com</text><text y="29.893" class="f">generated</text><text x="10.02" y="29.893" class="f">targets:</text><text x="1.002" y="32.064" class="f">-</text><text x="3.006" y="32.064" class="f">https://api.github.com/api</text><text x="1.002" y="34.235" class="f">-</text><text x="3.006" y="34.235" class="f">https://api.github.com/v1</text><text x="1.002" y="36.406" class="f">-</text><text x="3.006" y="36.406" class="f">https://api.github.com/v2</text><text x="1.002" y="38.577" class="f">-</text><text x="3.006" y="38.577" class="f">https://api.github.com/graphql</text><text y="40.748" class="f">tip:</text><text x="5.01" y="40.748" class="f">add</text><text x="9.018" y="40.748" class="f">--repo</text><text x="16.032" y="40.748" class="f">owner/repo</text><text x="27.054" y="40.748" class="f">to</text><text x="30.06" y="40.748" class="f">dispatch</text><text x="39.078" y="40.748" class="f">swarm</text></svg></svg></g></g></svg></svg>