<svg xmlns="http://www.w3.org/2000/svg" viewBox="0 0 64 64" fill="none">
  <defs>
    <linearGradient id="g" x1="10" y1="8" x2="54" y2="56" gradientUnits="userSpaceOnUse">
      <stop stop-color="#7C5CFF"/>
      <stop offset="1" stop-color="#36D1FF"/>
    </linearGradient>
    <filter id="s" x="-20%" y="-20%" width="140%" height="140%">
      <feDropShadow dx="0" dy="8" stdDeviation="6" flood-color="#000" flood-opacity=".35"/>
    </filter>
  </defs>
  <path filter="url(#s)" d="M32 6c12.15 0 22 9.85 22 22 0 14.8-13.2 25.8-22 30C23.2 53.8 10 42.8 10 28 10 15.85 19.85 6 32 6Z" fill="url(#g)"/>
  <path d="M24 23.5c0-2.5 2-4.5 4.5-4.5h7c2.5 0 4.5 2 4.5 4.5v17c0 2.5-2 4.5-4.5 4.5h-7c-2.5 0-4.5-2-4.5-4.5v-17Z" fill="rgba(9,14,24,.82)" stroke="rgba(255,255,255,.22)"/>
  <path d="M27.8 27.8h8.4" stroke="rgba(255,255,255,.72)" stroke-width="2.2" stroke-linecap="round"/>
  <path d="M27.8 32h6.2" stroke="rgba(255,255,255,.62)" stroke-width="2.2" stroke-linecap="round"/>
  <path d="M27.8 36.2h7.4" stroke="rgba(255,255,255,.62)" stroke-width="2.2" stroke-linecap="round"/>
  <path d="M23 16.5c3.2-2.8 6.2-4.2 9-4.2 5.6 0 10.5 4.8 10.5 11.2 0 5.4-3.2 9.8-8.4 12.3" stroke="rgba(255,255,255,.22)" stroke-width="2" stroke-linecap="round"/>
</svg>
